<svg width="900" height="900" viewBox="0 0 900 900" xmlns="http://www.w3.org/2000/svg">
  <defs>
    <linearGradient id="g1" x1="0" y1="0" x2="1" y2="1">
      <stop offset="0" stop-color="#f8f7f2"/>
      <stop offset="1" stop-color="#efede4"/>
    </linearGradient>
    <linearGradient id="skin" x1="0" y1="0" x2="0" y2="1">
      <stop offset="0" stop-color="#f0c98c"/>
      <stop offset="1" stop-color="#dbaa63"/>
    </linearGradient>
  </defs>
  <rect width="900" height="900" fill="url(#g1)"/>
  <ellipse cx="450" cy="760" rx="250" ry="90" fill="#ece8dd"/>
  <path d="M260 680c0-126 84-218 190-218s190 92 190 218v106H260V680z" fill="#f0bc45"/>
  <path d="M300 702c0-95 68-165 150-165s150 70 150 165v84H300v-84z" fill="#e2ad3d"/>
  <ellipse cx="450" cy="370" rx="134" ry="148" fill="url(#skin)"/>
  <path d="M315 365c8-95 55-155 135-155s127 60 135 155c-40-20-85-32-135-32s-95 12-135 32z" fill="#36251b"/>
  <rect x="398" y="292" width="104" height="18" rx="9" fill="#c74732"/>
  <circle cx="406" cy="392" r="8" fill="#211811"/>
  <circle cx="494" cy="392" r="8" fill="#211811"/>
  <path d="M398 436c27 18 77 18 104 0" stroke="#4d3323" stroke-width="7" stroke-linecap="round"/>
  <path d="M350 520c26 18 51 26 100 26s74-8 100-26" stroke="#d39a52" stroke-width="10" stroke-linecap="round" opacity="0.7"/>
</svg>
