<svg width="1200" height="760" viewBox="0 0 1200 760" xmlns="http://www.w3.org/2000/svg">
  <defs>
    <filter id="softShadow" x="-20%" y="-20%" width="140%" height="140%">
      <feDropShadow dx="0" dy="10" stdDeviation="10" flood-color="#0f172a" flood-opacity="0.08"/>
    </filter>
    <filter id="aiGlow" x="-50%" y="-50%" width="200%" height="200%">
      <feDropShadow dx="0" dy="0" stdDeviation="6" flood-color="#7c8cff" flood-opacity="0.45"/>
    </filter>
  </defs>

  <rect width="1200" height="760" rx="24" fill="#ffffff"/>

  <g opacity="0.25" stroke="#d9e0ea" stroke-width="2">
    <path d="M140 132H1060"/>
    <path d="M140 628H1060"/>
    <path d="M220 80V680"/>
    <path d="M980 80V680"/>
  </g>

  <g filter="url(#softShadow)">
    <path d="M236 154H966L896 610H166L236 154Z" fill="#f8fafc" stroke="#dfe7f0" stroke-width="3"/>
    <rect x="214" y="186" width="704" height="380" rx="18" fill="#ffffff" stroke="#e2e8f0" stroke-width="3"/>
  </g>

  <rect x="246" y="222" width="300" height="34" rx="10" fill="#eef2f7"/>
  <rect x="262" y="232" width="96" height="14" rx="7" fill="#c2cfdf"/>
  <circle cx="514" cy="239" r="9" fill="#b8c6d8"/>

  <rect x="246" y="286" width="210" height="240" rx="14" fill="#f6f8fb" stroke="#e3e8ef"/>
  <rect x="476" y="286" width="412" height="112" rx="14" fill="#f6f8fb" stroke="#e3e8ef"/>
  <rect x="476" y="414" width="196" height="112" rx="14" fill="#f6f8fb" stroke="#e3e8ef"/>
  <rect x="692" y="414" width="196" height="112" rx="14" fill="#f6f8fb" stroke="#e3e8ef"/>

  <rect x="534" y="330" width="150" height="150" rx="18" fill="#eef2ff" stroke="#cfd7ff" stroke-width="3" filter="url(#aiGlow)"/>
  <circle cx="609" cy="405" r="20" fill="#6478ff"/>

  <g stroke="#8ba0ff" stroke-width="3" stroke-linecap="round" opacity="0.95" filter="url(#aiGlow)">
    <path d="M609 385V346"/>
    <path d="M609 425V464"/>
    <path d="M589 405H550"/>
    <path d="M629 405H668"/>
    <path d="M595 391L568 364"/>
    <path d="M623 419L650 446"/>
    <path d="M595 419L568 446"/>
    <path d="M623 391L650 364"/>
  </g>

  <g stroke="#9aaee6" stroke-width="2.5" fill="none" opacity="0.9">
    <path d="M358 339C454 339 486 367 534 395"/>
    <path d="M358 400C446 405 482 405 534 405"/>
    <path d="M358 459C458 452 488 435 534 415"/>
    <path d="M684 395C742 369 779 352 820 340"/>
    <path d="M684 405C744 405 780 405 820 405"/>
    <path d="M684 415C744 443 776 458 820 470"/>
    <path d="M684 405C734 418 748 444 770 470"/>
  </g>

  <g fill="#6f87ff">
    <circle cx="358" cy="339" r="6"/>
    <circle cx="358" cy="400" r="6"/>
    <circle cx="358" cy="459" r="6"/>
    <circle cx="820" cy="340" r="6"/>
    <circle cx="820" cy="405" r="6"/>
    <circle cx="820" cy="470" r="6"/>
    <circle cx="770" cy="470" r="6"/>
  </g>

  <g fill="#d3dce8">
    <rect x="520" y="304" width="178" height="10" rx="5"/>
    <rect x="510" y="552" width="198" height="10" rx="5"/>
  </g>
</svg>
